<?xml version="1.0" encoding="UTF-8" standalone="no"?>
<svg
   xmlns:dc="http://purl.org/dc/elements/1.1/"
   xmlns:cc="http://creativecommons.org/ns#"
   xmlns:rdf="http://www.w3.org/1999/02/22-rdf-syntax-ns#"
   xmlns:svg="http://www.w3.org/2000/svg"
   xmlns="http://www.w3.org/2000/svg"
   version="1.1"
   id="svg2"
   viewBox="0 0 799.99999 130"
   height="130"
   width="800">
  <defs
     id="defs4" />
  <metadata
     id="metadata7">
    <rdf:RDF>
      <cc:Work
         rdf:about="">
        <dc:format>image/svg+xml</dc:format>
        <dc:type
           rdf:resource="http://purl.org/dc/dcmitype/StillImage" />
        <dc:title></dc:title>
      </cc:Work>
    </rdf:RDF>
  </metadata>
  <g
     transform="translate(0,-922.36216)"
     id="layer1">
    <path
       id="path3366"
       transform="translate(0,922.36216)"
       d="M 50.210938 0 L 0 130 L 30.298828 130 L 65.714844 26.785156 L 101.02539 130 L 129.625 130 L 81.748047 0 L 50.210938 0 z "
       style="fill:#00448d;fill-rule:evenodd;stroke:#000000;stroke-width:1px;stroke-linecap:butt;stroke-linejoin:miter;stroke-opacity:0;fill-opacity:1" />
    <path
       id="path3386"
       transform="translate(0,922.36216)"
       d="M 150 0 L 150 130 L 240.35742 130 L 240.35352 109.92383 L 175 109.82227 L 175.00977 0 L 150 0 z "
       style="fill:#00448d;fill-rule:evenodd;stroke:#000000;stroke-width:1px;stroke-linecap:butt;stroke-linejoin:miter;stroke-opacity:0;fill-opacity:1" />
    <path
       id="path3388"
       transform="translate(0,922.36216)"
       d="M 263.92773 0 L 263.92773 93.298828 C 265.1457 112.11604 274.45485 126.66124 301.29297 130 L 326.94531 130 C 348.84514 126.81787 364.7407 113.43071 366.07227 92.988281 L 366.07227 0 L 343.03516 0 L 343.03516 85.714844 L 342.95117 85.714844 C 342.50126 101.2052 335.78677 109.70831 314.97266 110.03906 C 297.94939 109.6354 286.97396 105.04063 286.45508 85.714844 L 286.42773 85.714844 L 286.42773 0 L 263.92773 0 z "
       style="fill:#00448d;fill-opacity:1;fill-rule:evenodd;stroke:#000000;stroke-width:1px;stroke-linecap:butt;stroke-linejoin:miter;stroke-opacity:0" />
    <path
       id="path3366-2"
       transform="translate(0,922.36216)"
       d="M 590.85156 0 L 540.64062 130 L 570.86133 130 L 605.66602 28.570312 L 640.36523 130 L 668.91797 130 L 621.04102 0 L 590.85156 0 z "
       style="fill:#00448d;fill-rule:evenodd;stroke:#000000;stroke-width:1px;stroke-linecap:butt;stroke-linejoin:miter;stroke-opacity:0;fill-opacity:1" />
    <path
       id="path3451"
       transform="translate(0,922.36216)"
       d="M 398.25 0 L 398.25 130 L 421.25 130 L 421.25 28 L 449.24609 130 L 473.64844 130 L 500.25 27.5 L 500.25 130 L 524.75 130 L 524.75 0 L 487.01172 0 L 461.5 96.75 L 435.20117 0 L 398.25 0 z "
       style="fill:#00448d;fill-rule:evenodd;stroke:#000000;stroke-width:1px;stroke-linecap:butt;stroke-linejoin:miter;stroke-opacity:0;fill-opacity:1" />
    <path
       id="path3453"
       transform="translate(0,922.36216)"
       d="M 688.75 0 L 688.75 130 L 711.25 130 L 711.25 77.5625 L 753.25 77.5 C 760.06922 77.80664 766.0824 79.5333 766 92 L 766 120.25 C 766.97624 124.50276 768.42438 127.62181 770.18164 130 L 800 130 L 800 0 L 799.99414 0 L 799.99414 129.98438 C 792.72815 127.13178 790.19745 121.48406 789.49805 114.75586 L 789.74805 83.78125 C 789.74805 83.78125 790.77604 71.708769 779.77539 66.693359 C 790.69196 55.725799 793.41191 49.986813 793.38281 34.726562 C 793.195 15.334207 785.16388 4.4474792 768.92773 0 L 688.75 0 z M 711.38281 21.632812 L 753.7793 21.632812 C 764.63416 22.168792 771.09744 27.51695 771.61719 39.375 C 770.87362 49.67795 766.44228 56.293647 755.71875 56.617188 L 711.38281 56.617188 L 711.38281 21.632812 z "
       style="fill:#00448d;fill-rule:evenodd;stroke:#000000;stroke-width:1px;stroke-linecap:butt;stroke-linejoin:miter;stroke-opacity:0;fill-opacity:1" />
  </g>
</svg>
